# Blender v2.79 (sub 0) OBJ File: ''
# www.blender.org
mtllib Torus.mtl
o Torus
v 2.959319 0.000000 -0.000000
v 2.846283 0.518562 -0.000000
v 2.550351 0.839051 -0.000000
v 2.184559 0.839051 -0.000000
v 1.888627 0.518562 -0.000000
v 1.775591 0.000000 -0.000000
v 1.888627 -0.518562 -0.000000
v 2.184559 -0.839051 -0.000000
v 2.550351 -0.839051 -0.000000
v 2.846283 -0.518562 -0.000000
v 2.814480 0.000000 -0.704811
v 2.706976 0.518562 -0.677890
v 2.425528 0.839051 -0.607409
v 2.077639 0.839051 -0.520289
v 1.796191 0.518562 -0.449808
v 1.688688 0.000000 -0.422887
v 1.796191 -0.518562 -0.449808
v 2.077639 -0.839051 -0.520289
v 2.425528 -0.839051 -0.607409
v 2.706976 -0.518562 -0.677890
v 2.394139 0.000000 -1.340631
v 2.302691 0.518562 -1.289423
v 2.063277 0.839051 -1.155360
v 1.767345 0.839051 -0.989649
v 1.527932 0.518562 -0.855586
v 1.436484 0.000000 -0.804378
v 1.527932 -0.518562 -0.855586
v 1.767345 -0.839051 -0.989649
v 2.063277 -0.839051 -1.155360
v 2.302691 -0.518562 -1.289423
v 1.739444 0.000000 -1.845220
v 1.673003 0.518562 -1.774738
v 1.499058 0.839051 -1.590217
v 1.284051 0.839051 -1.362135
v 1.110107 0.518562 -1.177613
v 1.043666 0.000000 -1.107132
v 1.110107 -0.518562 -1.177613
v 1.284051 -0.839051 -1.362135
v 1.499058 -0.839051 -1.590217
v 1.673003 -0.518562 -1.774738
v 0.914480 0.000000 -2.169186
v 0.879550 0.518562 -2.086330
v 0.788102 0.839051 -1.869412
v 0.675066 0.839051 -1.601285
v 0.583618 0.518562 -1.384367
v 0.548688 0.000000 -1.301511
v 0.583618 -0.518562 -1.384367
v 0.675066 -0.839051 -1.601285
v 0.788102 -0.839051 -1.869412
v 0.879550 -0.518562 -2.086330
v 0.000000 0.000000 -2.280817
v 0.000000 0.518562 -2.193698
v 0.000000 0.839051 -1.965616
v 0.000000 0.839051 -1.683691
v 0.000000 0.518562 -1.455609
v 0.000000 0.000000 -1.368490
v 0.000000 -0.518562 -1.455609
v 0.000000 -0.839051 -1.683691
v 0.000000 -0.839051 -1.965616
v 0.000000 -0.518562 -2.193698
v -0.914480 0.000000 -2.169186
v -0.879550 0.518562 -2.086330
v -0.788102 0.839051 -1.869412
v -0.675066 0.839051 -1.601285
v -0.583618 0.518562 -1.384367
v -0.548688 0.000000 -1.301511
v -0.583618 -0.518562 -1.384367
v -0.675066 -0.839051 -1.601285
v -0.788102 -0.839051 -1.869412
v -0.879550 -0.518562 -2.086330
v -1.739444 0.000000 -1.845219
v -1.673004 0.518562 -1.774738
v -1.499059 0.839051 -1.590216
v -1.284052 0.839051 -1.362135
v -1.110108 0.518562 -1.177613
v -1.043667 0.000000 -1.107132
v -1.110108 -0.518562 -1.177613
v -1.284052 -0.839051 -1.362135
v -1.499059 -0.839051 -1.590216
v -1.673004 -0.518562 -1.774738
v -2.394140 0.000000 -1.340630
v -2.302692 0.518562 -1.289423
v -2.063278 0.839051 -1.155360
v -1.767346 0.839051 -0.989648
v -1.527932 0.518562 -0.855585
v -1.436484 0.000000 -0.804378
v -1.527932 -0.518562 -0.855585
v -1.767346 -0.839051 -0.989648
v -2.063278 -0.839051 -1.155360
v -2.302692 -0.518562 -1.289423
v -2.814479 0.000000 -0.704811
v -2.706976 0.518562 -0.677890
v -2.425528 0.839051 -0.607409
v -2.077639 0.839051 -0.520289
v -1.796191 0.518562 -0.449808
v -1.688688 0.000000 -0.422887
v -1.796191 -0.518562 -0.449808
v -2.077639 -0.839051 -0.520289
v -2.425528 -0.839051 -0.607409
v -2.706976 -0.518562 -0.677890
v -2.959319 0.000000 -0.000000
v -2.846283 0.518562 -0.000000
v -2.550351 0.839051 -0.000000
v -2.184559 0.839051 -0.000000
v -1.888628 0.518562 -0.000000
v -1.775591 0.000000 -0.000000
v -1.888628 -0.518562 -0.000000
v -2.184559 -0.839051 -0.000000
v -2.550351 -0.839051 -0.000000
v -2.846283 -0.518562 -0.000000
v -2.814480 0.000000 0.704810
v -2.706976 0.518562 0.677889
v -2.425528 0.839051 0.607408
v -2.077640 0.839051 0.520288
v -1.796192 0.518562 0.449807
v -1.688688 0.000000 0.422886
v -1.796192 -0.518562 0.449807
v -2.077640 -0.839051 0.520288
v -2.425528 -0.839051 0.607408
v -2.706976 -0.518562 0.677889
v -2.394140 0.000000 1.340630
v -2.302692 0.518562 1.289422
v -2.063278 0.839051 1.155360
v -1.767346 0.839051 0.989648
v -1.527932 0.518562 0.855585
v -1.436484 0.000000 0.804378
v -1.527932 -0.518562 0.855585
v -1.767346 -0.839051 0.989648
v -2.063278 -0.839051 1.155360
v -2.302692 -0.518562 1.289422
v -1.739444 0.000000 1.845219
v -1.673004 0.518562 1.774738
v -1.499059 0.839051 1.590216
v -1.284052 0.839051 1.362135
v -1.110108 0.518562 1.177613
v -1.043667 0.000000 1.107132
v -1.110108 -0.518562 1.177613
v -1.284052 -0.839051 1.362135
v -1.499059 -0.839051 1.590216
v -1.673004 -0.518562 1.774738
v -0.914480 0.000000 2.169186
v -0.879550 0.518562 2.086330
v -0.788102 0.839051 1.869411
v -0.675066 0.839051 1.601285
v -0.583618 0.518562 1.384367
v -0.548688 0.000000 1.301511
v -0.583618 -0.518562 1.384367
v -0.675066 -0.839051 1.601285
v -0.788102 -0.839051 1.869411
v -0.879550 -0.518562 2.086330
v 0.000000 0.000000 2.280817
v 0.000000 0.518562 2.193698
v 0.000000 0.839051 1.965616
v 0.000000 0.839051 1.683691
v 0.000000 0.518562 1.455610
v 0.000000 0.000000 1.368490
v 0.000000 -0.518562 1.455610
v 0.000000 -0.839051 1.683691
v 0.000000 -0.839051 1.965616
v 0.000000 -0.518562 2.193698
v 0.914480 0.000000 2.169186
v 0.879550 0.518562 2.086330
v 0.788102 0.839051 1.869411
v 0.675066 0.839051 1.601285
v 0.583618 0.518562 1.384367
v 0.548688 0.000000 1.301511
v 0.583618 -0.518562 1.384367
v 0.675066 -0.839051 1.601285
v 0.788102 -0.839051 1.869411
v 0.879550 -0.518562 2.086330
v 1.739442 0.000000 1.845220
v 1.673002 0.518562 1.774739
v 1.499058 0.839051 1.590217
v 1.284051 0.839051 1.362135
v 1.110106 0.518562 1.177613
v 1.043666 0.000000 1.107132
v 1.110106 -0.518562 1.177613
v 1.284051 -0.839051 1.362135
v 1.499058 -0.839051 1.590217
v 1.673002 -0.518562 1.774739
v 2.394138 0.000000 1.340631
v 2.302690 0.518562 1.289424
v 2.063276 0.839051 1.155361
v 1.767345 0.839051 0.989649
v 1.527931 0.518562 0.855586
v 1.436483 0.000000 0.804379
v 1.527931 -0.518562 0.855586
v 1.767345 -0.839051 0.989649
v 2.063276 -0.839051 1.155361
v 2.302690 -0.518562 1.289424
v 2.814479 0.000000 0.704812
v 2.706975 0.518562 0.677890
v 2.425528 0.839051 0.607409
v 2.077639 0.839051 0.520290
v 1.796191 0.518562 0.449809
v 1.688687 0.000000 0.422887
v 1.796191 -0.518562 0.449809
v 2.077639 -0.839051 0.520290
v 2.425528 -0.839051 0.607409
v 2.706975 -0.518562 0.677890
vn 0.9579 0.2088 -0.1969
vn 0.7265 0.6708 -0.1493
vn 0.0000 1.0000 0.0000
vn -0.7265 0.6708 0.1493
vn -0.9579 0.2088 0.1969
vn -0.9579 -0.2088 0.1969
vn -0.7265 -0.6708 0.1493
vn 0.0000 -1.0000 0.0000
vn 0.7265 -0.6708 -0.1493
vn 0.9579 -0.2088 -0.1969
vn 0.8177 0.1976 -0.5406
vn 0.6344 0.6493 -0.4194
vn -0.6344 0.6493 0.4194
vn -0.8177 0.1976 0.5406
vn -0.8177 -0.1976 0.5406
vn -0.6344 -0.6493 0.4194
vn 0.6344 -0.6493 -0.4194
vn 0.8177 -0.1976 -0.5406
vn 0.6002 0.1827 -0.7787
vn 0.4796 0.6186 -0.6223
vn -0.4796 0.6186 0.6223
vn -0.6002 0.1827 0.7787
vn -0.6002 -0.1827 0.7787
vn -0.4796 -0.6186 0.6223
vn 0.4796 -0.6186 -0.6223
vn 0.6002 -0.1827 -0.7787
vn 0.3602 0.1708 -0.9171
vn 0.2946 0.5919 -0.7503
vn -0.2946 0.5919 0.7503
vn -0.3602 0.1708 0.9171
vn -0.3602 -0.1708 0.9171
vn -0.2946 -0.5919 0.7503
vn 0.2946 -0.5919 -0.7503
vn 0.3602 -0.1708 -0.9171
vn 0.1195 0.1645 -0.9791
vn 0.0990 0.5770 -0.8107
vn -0.0990 0.5770 0.8107
vn -0.1195 0.1645 0.9791
vn -0.1195 -0.1645 0.9791
vn -0.0990 -0.5770 0.8107
vn 0.0990 -0.5770 -0.8107
vn 0.1195 -0.1645 -0.9791
vn -0.1195 0.1645 -0.9791
vn -0.0990 0.5770 -0.8107
vn 0.0990 0.5770 0.8107
vn 0.1195 0.1645 0.9791
vn 0.1195 -0.1645 0.9791
vn 0.0990 -0.5770 0.8107
vn -0.0990 -0.5770 -0.8107
vn -0.1195 -0.1645 -0.9791
vn -0.3602 0.1708 -0.9171
vn -0.2946 0.5919 -0.7503
vn 0.2946 0.5919 0.7503
vn 0.3602 0.1708 0.9171
vn 0.3602 -0.1708 0.9171
vn 0.2946 -0.5919 0.7503
vn -0.2946 -0.5919 -0.7503
vn -0.3602 -0.1708 -0.9171
vn -0.6002 0.1827 -0.7787
vn -0.4796 0.6186 -0.6223
vn 0.4796 0.6186 0.6223
vn 0.6002 0.1827 0.7787
vn 0.6002 -0.1827 0.7787
vn 0.4796 -0.6186 0.6223
vn -0.4796 -0.6186 -0.6223
vn -0.6002 -0.1827 -0.7787
vn -0.8177 0.1976 -0.5406
vn -0.6344 0.6493 -0.4194
vn 0.6344 0.6493 0.4194
vn 0.8177 0.1976 0.5406
vn 0.8177 -0.1976 0.5406
vn 0.6344 -0.6493 0.4194
vn -0.6344 -0.6493 -0.4194
vn -0.8177 -0.1976 -0.5406
vn -0.9579 0.2088 -0.1969
vn -0.7265 0.6708 -0.1493
vn 0.7265 0.6708 0.1493
vn 0.9579 0.2088 0.1969
vn 0.9579 -0.2088 0.1969
vn 0.7265 -0.6708 0.1493
vn -0.7265 -0.6708 -0.1493
vn -0.9579 -0.2088 -0.1969
usemtl None
s off
f 11//1 2//1 1//1
f 12//2 3//2 2//2
f 13//3 4//3 3//3
f 14//4 5//4 4//4
f 15//5 6//5 5//5
f 6//6 17//6 7//6
f 7//7 18//7 8//7
f 8//8 19//8 9//8
f 9//9 20//9 10//9
f 10//10 11//10 1//10
f 21//11 12//11 11//11
f 22//12 13//12 12//12
f 23//3 14//3 13//3
f 24//13 15//13 14//13
f 25//14 16//14 15//14
f 16//15 27//15 17//15
f 17//16 28//16 18//16
f 18//8 29//8 19//8
f 19//17 30//17 20//17
f 20//18 21//18 11//18
f 31//19 22//19 21//19
f 32//20 23//20 22//20
f 33//3 24//3 23//3
f 34//21 25//21 24//21
f 35//22 26//22 25//22
f 26//23 37//23 27//23
f 27//24 38//24 28//24
f 28//8 39//8 29//8
f 29//25 40//25 30//25
f 30//26 31//26 21//26
f 41//27 32//27 31//27
f 42//28 33//28 32//28
f 43//3 34//3 33//3
f 44//29 35//29 34//29
f 45//30 36//30 35//30
f 36//31 47//31 37//31
f 37//32 48//32 38//32
f 38//8 49//8 39//8
f 39//33 50//33 40//33
f 40//34 41//34 31//34
f 51//35 42//35 41//35
f 52//36 43//36 42//36
f 53//3 44//3 43//3
f 54//37 45//37 44//37
f 55//38 46//38 45//38
f 46//39 57//39 47//39
f 47//40 58//40 48//40
f 48//8 59//8 49//8
f 49//41 60//41 50//41
f 50//42 51//42 41//42
f 51//43 62//43 52//43
f 52//44 63//44 53//44
f 53//3 64//3 54//3
f 54//45 65//45 55//45
f 55//46 66//46 56//46
f 66//47 57//47 56//47
f 67//48 58//48 57//48
f 68//8 59//8 58//8
f 69//49 60//49 59//49
f 70//50 51//50 60//50
f 61//51 72//51 62//51
f 62//52 73//52 63//52
f 63//3 74//3 64//3
f 64//53 75//53 65//53
f 65//54 76//54 66//54
f 76//55 67//55 66//55
f 77//56 68//56 67//56
f 78//8 69//8 68//8
f 79//57 70//57 69//57
f 80//58 61//58 70//58
f 71//59 82//59 72//59
f 72//60 83//60 73//60
f 73//3 84//3 74//3
f 74//61 85//61 75//61
f 75//62 86//62 76//62
f 86//63 77//63 76//63
f 87//64 78//64 77//64
f 88//8 79//8 78//8
f 89//65 80//65 79//65
f 90//66 71//66 80//66
f 81//67 92//67 82//67
f 82//68 93//68 83//68
f 83//3 94//3 84//3
f 84//69 95//69 85//69
f 85//70 96//70 86//70
f 96//71 87//71 86//71
f 97//72 88//72 87//72
f 98//8 89//8 88//8
f 99//73 90//73 89//73
f 100//74 81//74 90//74
f 91//75 102//75 92//75
f 92//76 103//76 93//76
f 93//3 104//3 94//3
f 94//77 105//77 95//77
f 95//78 106//78 96//78
f 106//79 97//79 96//79
f 107//80 98//80 97//80
f 108//8 99//8 98//8
f 109//81 100//81 99//81
f 110//82 91//82 100//82
f 111//5 102//5 101//5
f 112//4 103//4 102//4
f 113//3 104//3 103//3
f 114//2 105//2 104//2
f 115//1 106//1 105//1
f 106//10 117//10 107//10
f 107//9 118//9 108//9
f 108//8 119//8 109//8
f 109//7 120//7 110//7
f 110//6 111//6 101//6
f 121//14 112//14 111//14
f 122//13 113//13 112//13
f 123//3 114//3 113//3
f 124//12 115//12 114//12
f 125//11 116//11 115//11
f 116//18 127//18 117//18
f 117//17 128//17 118//17
f 118//8 129//8 119//8
f 119//16 130//16 120//16
f 120//15 121//15 111//15
f 131//22 122//22 121//22
f 132//21 123//21 122//21
f 133//3 124//3 123//3
f 134//20 125//20 124//20
f 135//19 126//19 125//19
f 126//26 137//26 127//26
f 127//25 138//25 128//25
f 128//8 139//8 129//8
f 129//24 140//24 130//24
f 130//23 131//23 121//23
f 141//30 132//30 131//30
f 142//29 133//29 132//29
f 143//3 134//3 133//3
f 144//28 135//28 134//28
f 145//27 136//27 135//27
f 136//34 147//34 137//34
f 137//33 148//33 138//33
f 138//8 149//8 139//8
f 139//32 150//32 140//32
f 140//31 141//31 131//31
f 151//38 142//38 141//38
f 152//37 143//37 142//37
f 153//3 144//3 143//3
f 154//36 145//36 144//36
f 155//35 146//35 145//35
f 146//42 157//42 147//42
f 147//41 158//41 148//41
f 148//8 159//8 149//8
f 149//40 160//40 150//40
f 150//39 151//39 141//39
f 151//46 162//46 152//46
f 152//45 163//45 153//45
f 153//3 164//3 154//3
f 154//44 165//44 155//44
f 155//43 166//43 156//43
f 166//50 157//50 156//50
f 167//49 158//49 157//49
f 168//8 159//8 158//8
f 169//48 160//48 159//48
f 170//47 151//47 160//47
f 161//54 172//54 162//54
f 162//53 173//53 163//53
f 163//3 174//3 164//3
f 164//52 175//52 165//52
f 165//51 176//51 166//51
f 176//58 167//58 166//58
f 177//57 168//57 167//57
f 178//8 169//8 168//8
f 179//56 170//56 169//56
f 180//55 161//55 170//55
f 171//62 182//62 172//62
f 172//61 183//61 173//61
f 173//3 184//3 174//3
f 174//60 185//60 175//60
f 175//59 186//59 176//59
f 186//66 177//66 176//66
f 187//65 178//65 177//65
f 188//8 179//8 178//8
f 189//64 180//64 179//64
f 190//63 171//63 180//63
f 181//70 192//70 182//70
f 182//69 193//69 183//69
f 183//3 194//3 184//3
f 184//68 195//68 185//68
f 185//67 196//67 186//67
f 196//74 187//74 186//74
f 197//73 188//73 187//73
f 198//8 189//8 188//8
f 199//72 190//72 189//72
f 200//71 181//71 190//71
f 191//78 2//78 192//78
f 192//77 3//77 193//77
f 193//3 4//3 194//3
f 194//76 5//76 195//76
f 195//75 6//75 196//75
f 6//82 197//82 196//82
f 7//81 198//81 197//81
f 8//8 199//8 198//8
f 9//80 200//80 199//80
f 10//79 191//79 200//79
f 11//1 12//1 2//1
f 12//2 13//2 3//2
f 13//3 14//3 4//3
f 14//4 15//4 5//4
f 15//5 16//5 6//5
f 6//6 16//6 17//6
f 7//7 17//7 18//7
f 8//8 18//8 19//8
f 9//9 19//9 20//9
f 10//10 20//10 11//10
f 21//11 22//11 12//11
f 22//12 23//12 13//12
f 23//3 24//3 14//3
f 24//13 25//13 15//13
f 25//14 26//14 16//14
f 16//15 26//15 27//15
f 17//16 27//16 28//16
f 18//8 28//8 29//8
f 19//17 29//17 30//17
f 20//18 30//18 21//18
f 31//19 32//19 22//19
f 32//20 33//20 23//20
f 33//3 34//3 24//3
f 34//21 35//21 25//21
f 35//22 36//22 26//22
f 26//23 36//23 37//23
f 27//24 37//24 38//24
f 28//8 38//8 39//8
f 29//25 39//25 40//25
f 30//26 40//26 31//26
f 41//27 42//27 32//27
f 42//28 43//28 33//28
f 43//3 44//3 34//3
f 44//29 45//29 35//29
f 45//30 46//30 36//30
f 36//31 46//31 47//31
f 37//32 47//32 48//32
f 38//8 48//8 49//8
f 39//33 49//33 50//33
f 40//34 50//34 41//34
f 51//35 52//35 42//35
f 52//36 53//36 43//36
f 53//3 54//3 44//3
f 54//37 55//37 45//37
f 55//38 56//38 46//38
f 46//39 56//39 57//39
f 47//40 57//40 58//40
f 48//8 58//8 59//8
f 49//41 59//41 60//41
f 50//42 60//42 51//42
f 51//43 61//43 62//43
f 52//44 62//44 63//44
f 53//3 63//3 64//3
f 54//45 64//45 65//45
f 55//46 65//46 66//46
f 66//47 67//47 57//47
f 67//48 68//48 58//48
f 68//8 69//8 59//8
f 69//49 70//49 60//49
f 70//50 61//50 51//50
f 61//51 71//51 72//51
f 62//52 72//52 73//52
f 63//3 73//3 74//3
f 64//53 74//53 75//53
f 65//54 75//54 76//54
f 76//55 77//55 67//55
f 77//56 78//56 68//56
f 78//8 79//8 69//8
f 79//57 80//57 70//57
f 80//58 71//58 61//58
f 71//59 81//59 82//59
f 72//60 82//60 83//60
f 73//3 83//3 84//3
f 74//61 84//61 85//61
f 75//62 85//62 86//62
f 86//63 87//63 77//63
f 87//64 88//64 78//64
f 88//8 89//8 79//8
f 89//65 90//65 80//65
f 90//66 81//66 71//66
f 81//67 91//67 92//67
f 82//68 92//68 93//68
f 83//3 93//3 94//3
f 84//69 94//69 95//69
f 85//70 95//70 96//70
f 96//71 97//71 87//71
f 97//72 98//72 88//72
f 98//8 99//8 89//8
f 99//73 100//73 90//73
f 100//74 91//74 81//74
f 91//75 101//75 102//75
f 92//76 102//76 103//76
f 93//3 103//3 104//3
f 94//77 104//77 105//77
f 95//78 105//78 106//78
f 106//79 107//79 97//79
f 107//80 108//80 98//80
f 108//8 109//8 99//8
f 109//81 110//81 100//81
f 110//82 101//82 91//82
f 111//5 112//5 102//5
f 112//4 113//4 103//4
f 113//3 114//3 104//3
f 114//2 115//2 105//2
f 115//1 116//1 106//1
f 106//10 116//10 117//10
f 107//9 117//9 118//9
f 108//8 118//8 119//8
f 109//7 119//7 120//7
f 110//6 120//6 111//6
f 121//14 122//14 112//14
f 122//13 123//13 113//13
f 123//3 124//3 114//3
f 124//12 125//12 115//12
f 125//11 126//11 116//11
f 116//18 126//18 127//18
f 117//17 127//17 128//17
f 118//8 128//8 129//8
f 119//16 129//16 130//16
f 120//15 130//15 121//15
f 131//22 132//22 122//22
f 132//21 133//21 123//21
f 133//3 134//3 124//3
f 134//20 135//20 125//20
f 135//19 136//19 126//19
f 126//26 136//26 137//26
f 127//25 137//25 138//25
f 128//8 138//8 139//8
f 129//24 139//24 140//24
f 130//23 140//23 131//23
f 141//30 142//30 132//30
f 142//29 143//29 133//29
f 143//3 144//3 134//3
f 144//28 145//28 135//28
f 145//27 146//27 136//27
f 136//34 146//34 147//34
f 137//33 147//33 148//33
f 138//8 148//8 149//8
f 139//32 149//32 150//32
f 140//31 150//31 141//31
f 151//38 152//38 142//38
f 152//37 153//37 143//37
f 153//3 154//3 144//3
f 154//36 155//36 145//36
f 155//35 156//35 146//35
f 146//42 156//42 157//42
f 147//41 157//41 158//41
f 148//8 158//8 159//8
f 149//40 159//40 160//40
f 150//39 160//39 151//39
f 151//46 161//46 162//46
f 152//45 162//45 163//45
f 153//3 163//3 164//3
f 154//44 164//44 165//44
f 155//43 165//43 166//43
f 166//50 167//50 157//50
f 167//49 168//49 158//49
f 168//8 169//8 159//8
f 169//48 170//48 160//48
f 170//47 161//47 151//47
f 161//54 171//54 172//54
f 162//53 172//53 173//53
f 163//3 173//3 174//3
f 164//52 174//52 175//52
f 165//51 175//51 176//51
f 176//58 177//58 167//58
f 177//57 178//57 168//57
f 178//8 179//8 169//8
f 179//56 180//56 170//56
f 180//55 171//55 161//55
f 171//62 181//62 182//62
f 172//61 182//61 183//61
f 173//3 183//3 184//3
f 174//60 184//60 185//60
f 175//59 185//59 186//59
f 186//66 187//66 177//66
f 187//65 188//65 178//65
f 188//8 189//8 179//8
f 189//64 190//64 180//64
f 190//63 181//63 171//63
f 181//70 191//70 192//70
f 182//69 192//69 193//69
f 183//3 193//3 194//3
f 184//68 194//68 195//68
f 185//67 195//67 196//67
f 196//74 197//74 187//74
f 197//73 198//73 188//73
f 198//8 199//8 189//8
f 199//72 200//72 190//72
f 200//71 191//71 181//71
f 191//78 1//78 2//78
f 192//77 2//77 3//77
f 193//3 3//3 4//3
f 194//76 4//76 5//76
f 195//75 5//75 6//75
f 6//82 7//82 197//82
f 7//81 8//81 198//81
f 8//8 9//8 199//8
f 9//80 10//80 200//80
f 10//79 1//79 191//79
